<mxfile host="app.diagrams.net" modified="2024-04-18T14:38:50.348Z" agent="Mozilla/5.0 (Windows NT 10.0; Win64; x64) AppleWebKit/537.36 (KHTML, like Gecko) Chrome/120.0.0.0 YaBrowser/24.1.0.0 Safari/537.36" etag="h-X6jXuIPZKf3qPsOQsZ" version="24.2.5" type="github">
  <diagram name="Страница — 1" id="FCtg4yalxC-HjiwUqEd4">
    <mxGraphModel dx="991" dy="630" grid="1" gridSize="10" guides="1" tooltips="1" connect="1" arrows="1" fold="1" page="1" pageScale="1" pageWidth="827" pageHeight="1169" math="0" shadow="0">
      <root>
        <mxCell id="0" />
        <mxCell id="1" parent="0" />
        <mxCell id="Uy51VwmZ6wpDzrS0u1qO-1" value="Client" style="html=1;whiteSpace=wrap;" vertex="1" parent="1">
          <mxGeometry x="180" y="243" width="110" height="50" as="geometry" />
        </mxCell>
        <mxCell id="Uy51VwmZ6wpDzrS0u1qO-2" value="Points" style="swimlane;fontStyle=1;align=center;verticalAlign=top;childLayout=stackLayout;horizontal=1;startSize=26;horizontalStack=0;resizeParent=1;resizeParentMax=0;resizeLast=0;collapsible=1;marginBottom=0;whiteSpace=wrap;html=1;" vertex="1" parent="1">
          <mxGeometry x="410" y="210" width="220" height="150" as="geometry" />
        </mxCell>
        <mxCell id="Uy51VwmZ6wpDzrS0u1qO-3" value="+x1:Real&lt;div&gt;+y1:Real&lt;/div&gt;&lt;div&gt;+x2:Real&lt;/div&gt;&lt;div&gt;+y2:Real&lt;/div&gt;&lt;div&gt;&lt;br&gt;&lt;/div&gt;" style="text;strokeColor=none;fillColor=none;align=left;verticalAlign=top;spacingLeft=4;spacingRight=4;overflow=hidden;rotatable=0;points=[[0,0.5],[1,0.5]];portConstraint=eastwest;whiteSpace=wrap;html=1;" vertex="1" parent="Uy51VwmZ6wpDzrS0u1qO-2">
          <mxGeometry y="26" width="220" height="64" as="geometry" />
        </mxCell>
        <mxCell id="Uy51VwmZ6wpDzrS0u1qO-4" value="" style="line;strokeWidth=1;fillColor=none;align=left;verticalAlign=middle;spacingTop=-1;spacingLeft=3;spacingRight=3;rotatable=0;labelPosition=right;points=[];portConstraint=eastwest;strokeColor=inherit;" vertex="1" parent="Uy51VwmZ6wpDzrS0u1qO-2">
          <mxGeometry y="90" width="220" height="10" as="geometry" />
        </mxCell>
        <mxCell id="Uy51VwmZ6wpDzrS0u1qO-5" value="+SetStrategy(strategy:IPointStrategy)&lt;div&gt;+Calculate():Real&lt;/div&gt;" style="text;strokeColor=none;fillColor=none;align=left;verticalAlign=top;spacingLeft=4;spacingRight=4;overflow=hidden;rotatable=0;points=[[0,0.5],[1,0.5]];portConstraint=eastwest;whiteSpace=wrap;html=1;" vertex="1" parent="Uy51VwmZ6wpDzrS0u1qO-2">
          <mxGeometry y="100" width="220" height="50" as="geometry" />
        </mxCell>
        <mxCell id="Uy51VwmZ6wpDzrS0u1qO-6" value="" style="endArrow=open;endFill=1;endSize=12;html=1;rounded=0;entryX=0;entryY=0.5;entryDx=0;entryDy=0;exitX=1;exitY=0.5;exitDx=0;exitDy=0;" edge="1" parent="1" source="Uy51VwmZ6wpDzrS0u1qO-1" target="Uy51VwmZ6wpDzrS0u1qO-3">
          <mxGeometry width="160" relative="1" as="geometry">
            <mxPoint x="310" y="250" as="sourcePoint" />
            <mxPoint x="470" y="250" as="targetPoint" />
          </mxGeometry>
        </mxCell>
        <mxCell id="Uy51VwmZ6wpDzrS0u1qO-7" value="&amp;lt;&amp;lt;interface&amp;gt;&amp;gt;&lt;div&gt;IPointStrategy&lt;/div&gt;" style="swimlane;fontStyle=1;align=center;verticalAlign=top;childLayout=stackLayout;horizontal=1;startSize=40;horizontalStack=0;resizeParent=1;resizeParentMax=0;resizeLast=0;collapsible=1;marginBottom=0;whiteSpace=wrap;html=1;" vertex="1" parent="1">
          <mxGeometry x="375" y="490" width="290" height="66" as="geometry" />
        </mxCell>
        <mxCell id="Uy51VwmZ6wpDzrS0u1qO-10" value="+Calculate(x1:Real, y1:Real, x2:Real,y2:Real):Real" style="text;strokeColor=none;fillColor=none;align=left;verticalAlign=top;spacingLeft=4;spacingRight=4;overflow=hidden;rotatable=0;points=[[0,0.5],[1,0.5]];portConstraint=eastwest;whiteSpace=wrap;html=1;" vertex="1" parent="Uy51VwmZ6wpDzrS0u1qO-7">
          <mxGeometry y="40" width="290" height="26" as="geometry" />
        </mxCell>
        <mxCell id="Uy51VwmZ6wpDzrS0u1qO-11" value="Points" style="text;align=center;fontStyle=1;verticalAlign=middle;spacingLeft=3;spacingRight=3;strokeColor=none;rotatable=0;points=[[0,0.5],[1,0.5]];portConstraint=eastwest;html=1;" vertex="1" parent="1">
          <mxGeometry x="330" y="240" width="80" height="26" as="geometry" />
        </mxCell>
        <mxCell id="Uy51VwmZ6wpDzrS0u1qO-12" value="" style="endArrow=open;endFill=1;endSize=12;html=1;rounded=0;entryX=0.5;entryY=0;entryDx=0;entryDy=0;" edge="1" parent="1" target="Uy51VwmZ6wpDzrS0u1qO-7">
          <mxGeometry width="160" relative="1" as="geometry">
            <mxPoint x="520" y="358" as="sourcePoint" />
            <mxPoint x="620" y="430" as="targetPoint" />
          </mxGeometry>
        </mxCell>
        <mxCell id="Uy51VwmZ6wpDzrS0u1qO-13" value="strategy" style="text;align=center;fontStyle=1;verticalAlign=middle;spacingLeft=3;spacingRight=3;strokeColor=none;rotatable=0;points=[[0,0.5],[1,0.5]];portConstraint=eastwest;html=1;" vertex="1" parent="1">
          <mxGeometry x="510" y="440" width="80" height="26" as="geometry" />
        </mxCell>
        <mxCell id="Uy51VwmZ6wpDzrS0u1qO-14" value="MaxStrategy" style="html=1;whiteSpace=wrap;" vertex="1" parent="1">
          <mxGeometry x="325" y="630" width="110" height="50" as="geometry" />
        </mxCell>
        <mxCell id="Uy51VwmZ6wpDzrS0u1qO-15" value="SqrtStrategy" style="html=1;whiteSpace=wrap;" vertex="1" parent="1">
          <mxGeometry x="465" y="630" width="110" height="50" as="geometry" />
        </mxCell>
        <mxCell id="Uy51VwmZ6wpDzrS0u1qO-16" value="SumStrategy" style="html=1;whiteSpace=wrap;" vertex="1" parent="1">
          <mxGeometry x="610" y="630" width="110" height="50" as="geometry" />
        </mxCell>
        <mxCell id="Uy51VwmZ6wpDzrS0u1qO-17" value="" style="endArrow=block;dashed=1;endFill=0;endSize=12;html=1;rounded=0;entryX=0.495;entryY=0.992;entryDx=0;entryDy=0;entryPerimeter=0;exitX=0.5;exitY=0;exitDx=0;exitDy=0;" edge="1" parent="1" source="Uy51VwmZ6wpDzrS0u1qO-15" target="Uy51VwmZ6wpDzrS0u1qO-10">
          <mxGeometry width="160" relative="1" as="geometry">
            <mxPoint x="490" y="580" as="sourcePoint" />
            <mxPoint x="650" y="580" as="targetPoint" />
          </mxGeometry>
        </mxCell>
        <mxCell id="Uy51VwmZ6wpDzrS0u1qO-18" value="" style="endArrow=none;dashed=1;endFill=0;endSize=12;html=1;rounded=0;exitX=0.5;exitY=0;exitDx=0;exitDy=0;" edge="1" parent="1">
          <mxGeometry width="160" relative="1" as="geometry">
            <mxPoint x="380.5" y="630" as="sourcePoint" />
            <mxPoint x="520" y="600" as="targetPoint" />
            <Array as="points">
              <mxPoint x="380" y="600" />
            </Array>
          </mxGeometry>
        </mxCell>
        <mxCell id="Uy51VwmZ6wpDzrS0u1qO-19" value="" style="endArrow=none;dashed=1;endFill=0;endSize=12;html=1;rounded=0;exitX=0.5;exitY=0;exitDx=0;exitDy=0;" edge="1" parent="1">
          <mxGeometry width="160" relative="1" as="geometry">
            <mxPoint x="665.5" y="630" as="sourcePoint" />
            <mxPoint x="520" y="600" as="targetPoint" />
            <Array as="points">
              <mxPoint x="665" y="600" />
            </Array>
          </mxGeometry>
        </mxCell>
        <mxCell id="Uy51VwmZ6wpDzrS0u1qO-20" value="" style="endArrow=open;endFill=1;endSize=12;html=1;rounded=0;entryX=0.001;entryY=0.038;entryDx=0;entryDy=0;exitX=0.431;exitY=1.016;exitDx=0;exitDy=0;exitPerimeter=0;entryPerimeter=0;" edge="1" parent="1" source="Uy51VwmZ6wpDzrS0u1qO-1" target="Uy51VwmZ6wpDzrS0u1qO-10">
          <mxGeometry width="160" relative="1" as="geometry">
            <mxPoint x="280" y="410" as="sourcePoint" />
            <mxPoint x="400" y="400" as="targetPoint" />
            <Array as="points">
              <mxPoint x="227" y="531" />
            </Array>
          </mxGeometry>
        </mxCell>
        <mxCell id="Uy51VwmZ6wpDzrS0u1qO-21" value="strategy" style="text;align=center;fontStyle=1;verticalAlign=middle;spacingLeft=3;spacingRight=3;strokeColor=none;rotatable=0;points=[[0,0.5],[1,0.5]];portConstraint=eastwest;html=1;" vertex="1" parent="1">
          <mxGeometry x="280" y="500" width="80" height="26" as="geometry" />
        </mxCell>
      </root>
    </mxGraphModel>
  </diagram>
</mxfile>
